# xmcd CD database file
#
# Track frame offsets:
#	150
#	17169
#	47036
#	64279
#	87089
#	109289
#	120741
#	136420
#	150151
#	166889
#	188267
#	209358
#	228861
#
# Disc length: 3386 seconds
#
# Revision: 2
# Processed by: cddbd v1.5.2PL0 Copyright (c) Steve Scherf et al.
# Submitted via: CDex 1.70beta2
#
DISCID=a00d380d
DTITLE=Jan Krtitel Novák and Bridge Band - Bridge Band 2010
DYEAR=2010
DGENRE=Blues
TTITLE0=Happy Days Are Here Again
TTITLE1=What A Wonderful World
TTITLE2=Street Car Blues
TTITLE3=Somebody Stole My Gal
TTITLE4=Moten Swing
TTITLE5=Raisin' The Roof
TTITLE6=Celery Head Blues
TTITLE7=In The Mood
TTITLE8=Magda
TTITLE9=Sweet Sue - Just You
TTITLE10=Diga Diga Do
TTITLE11=Royal Garden Blues
TTITLE12=Oh, When The Saints Go Marching In
EXTD=YEAR: 2010
EXTT0=
EXTT1=
EXTT2=
EXTT3=
EXTT4=
EXTT5=
EXTT6=
EXTT7=
EXTT8=
EXTT9=
EXTT10=
EXTT11=
EXTT12=
PLAYORDER=
